<?xml version="1.0" ?><svg style="enable-background:new 0 0 48 48;" version="1.1" viewBox="0 0 48 48" xml:space="preserve" xmlns="http://www.w3.org/2000/svg" xmlns:xlink="http://www.w3.org/1999/xlink"><g id="Icons"><g><g><path d="M35.51766,24.46959h-2.84998v12c0,0.87-0.78998,1.58997-1.76001,1.58997h-1.04999V30.9796h-3.06     v7.07996h-9.71997c-0.97003,0-1.75-0.71997-1.75-1.58997v-12h-2.86005c-1.01996,0-1.59998-0.98004-0.97998-1.65002     l3.84003-4.15997v-7.01001c0-0.59998,0.53998-1.09003,1.19995-1.09003h2.15002c0.66998,0,1.21002,0.49005,1.21002,1.09003     v2.08997l3.12994-3.38995c0.49005-0.54004,1.46002-0.54004,1.96002,0L36.4977,22.81957     C37.12771,23.48955,36.54769,24.46959,35.51766,24.46959z" style="fill:#5F83CF;"/></g><g><path d="     M15.32806,24.47509v11.99c0,0.87,0.78,1.59,1.75,1.59h5.39h3.06h1.27" style="fill:none;stroke:#303030;stroke-width:0.7;stroke-linecap:round;stroke-linejoin:round;stroke-miterlimit:10;"/><path d="     M32.66806,24.47509v11.99c0,0.87-0.79,1.59-1.76,1.59h-1.05" style="fill:none;stroke:#303030;stroke-width:0.7;stroke-linecap:round;stroke-linejoin:round;stroke-miterlimit:10;"/><path d="     M19.89194,13.73477l3.13-3.3889c0.49-0.53461,1.46-0.53461,1.96,0l11.52,12.4773c0.63,0.67053,0.05,1.64914-0.98,1.64914h-2.85" style="fill:none;stroke:#303030;stroke-width:0.7;stroke-linecap:round;stroke-linejoin:round;stroke-miterlimit:10;"/><path d="     M15.33194,24.47232h-2.86c-1.02,0-1.6-0.97861-0.98-1.64914l3.84-4.1591" style="fill:none;stroke:#303030;stroke-width:0.7;stroke-linecap:round;stroke-linejoin:round;stroke-miterlimit:10;"/><path d="     M19.89194,13.73477v-2.08408c0-0.59804-0.54-1.08735-1.21-1.08735h-2.15c-0.66,0-1.2,0.48931-1.2,1.08735v7.01338" style="fill:none;stroke:#303030;stroke-width:0.7;stroke-linecap:round;stroke-linejoin:round;stroke-miterlimit:10;"/><polyline points="     26.79764,38.05509 26.79764,30.97509 29.85764,30.97509 29.85764,38.05509    " style="fill:none;stroke:#303030;stroke-width:0.7;stroke-linecap:round;stroke-linejoin:round;stroke-miterlimit:10;"/><line style="fill:none;stroke:#303030;stroke-width:0.7;stroke-linecap:round;stroke-linejoin:round;stroke-miterlimit:10;" x1="17.75234" x2="17.75234" y1="24.47232" y2="30.20798"/><line style="fill:none;stroke:#303030;stroke-width:0.7;stroke-linecap:round;stroke-linejoin:round;stroke-miterlimit:10;" x1="17.75234" x2="17.75234" y1="32.61734" y2="34.2585"/></g></g></g></svg>